<mxfile host="app.diagrams.net" agent="Mozilla/5.0 (Macintosh; Intel Mac OS X 10_15_7) AppleWebKit/537.36 (KHTML, like Gecko) Chrome/129.0.0.0 Safari/537.36 Edg/129.0.0.0" version="26.1.3">
  <diagram name="Page-1" id="MapzwlNkCdpZGBLbs8cl">
    <mxGraphModel dx="1418" dy="694" grid="1" gridSize="10" guides="1" tooltips="1" connect="1" arrows="1" fold="1" page="1" pageScale="1" pageWidth="850" pageHeight="1100" math="1" shadow="0">
      <root>
        <mxCell id="0" />
        <mxCell id="1" parent="0" />
        <mxCell id="Yms6cLOZq9a6LL3DzPWF-11" style="edgeStyle=orthogonalEdgeStyle;rounded=0;orthogonalLoop=1;jettySize=auto;html=1;exitX=1;exitY=0.5;exitDx=0;exitDy=0;entryX=0;entryY=0.5;entryDx=0;entryDy=0;fillColor=#dae8fc;strokeColor=#6c8ebf;strokeWidth=2;" edge="1" parent="1" source="Yms6cLOZq9a6LL3DzPWF-1" target="Yms6cLOZq9a6LL3DzPWF-6">
          <mxGeometry relative="1" as="geometry" />
        </mxCell>
        <mxCell id="Yms6cLOZq9a6LL3DzPWF-1" value="&lt;div&gt;&lt;font style=&quot;font-size: 14px;&quot; face=&quot;Times New Roman&quot;&gt;&lt;br&gt;&lt;/font&gt;&lt;/div&gt;" style="rounded=1;whiteSpace=wrap;html=1;align=left;fillColor=#dae8fc;strokeColor=#6c8ebf;strokeWidth=2;" vertex="1" parent="1">
          <mxGeometry x="40" y="160" width="160" height="160" as="geometry" />
        </mxCell>
        <mxCell id="Yms6cLOZq9a6LL3DzPWF-3" value="&lt;font face=&quot;Times New Roman&quot;&gt;Section II&lt;/font&gt;" style="text;html=1;align=center;verticalAlign=middle;whiteSpace=wrap;rounded=0;" vertex="1" parent="1">
          <mxGeometry x="40" y="160" width="60" height="30" as="geometry" />
        </mxCell>
        <mxCell id="Yms6cLOZq9a6LL3DzPWF-4" value="&lt;font face=&quot;Times New Roman&quot;&gt;ISD Syntax&lt;/font&gt;" style="rounded=1;whiteSpace=wrap;html=1;fillColor=#f5f5f5;fontColor=#333333;strokeColor=#666666;strokeWidth=2;" vertex="1" parent="1">
          <mxGeometry x="50" y="190" width="140" height="30" as="geometry" />
        </mxCell>
        <mxCell id="Yms6cLOZq9a6LL3DzPWF-5" value="&lt;font face=&quot;Times New Roman&quot;&gt;Motivating Example&lt;/font&gt;" style="rounded=1;whiteSpace=wrap;html=1;fillColor=#f5f5f5;fontColor=#333333;strokeColor=#666666;strokeWidth=2;" vertex="1" parent="1">
          <mxGeometry x="50" y="270" width="140" height="30" as="geometry" />
        </mxCell>
        <mxCell id="Yms6cLOZq9a6LL3DzPWF-23" style="edgeStyle=orthogonalEdgeStyle;rounded=0;orthogonalLoop=1;jettySize=auto;html=1;exitX=0.5;exitY=1;exitDx=0;exitDy=0;entryX=0.5;entryY=0;entryDx=0;entryDy=0;strokeWidth=2;fillColor=#dae8fc;strokeColor=#6c8ebf;" edge="1" parent="1" source="Yms6cLOZq9a6LL3DzPWF-6" target="Yms6cLOZq9a6LL3DzPWF-13">
          <mxGeometry relative="1" as="geometry" />
        </mxCell>
        <mxCell id="Yms6cLOZq9a6LL3DzPWF-6" value="&lt;div&gt;&lt;font style=&quot;font-size: 14px;&quot; face=&quot;Times New Roman&quot;&gt;&lt;br&gt;&lt;/font&gt;&lt;/div&gt;" style="rounded=1;whiteSpace=wrap;html=1;align=left;fillColor=#dae8fc;strokeColor=#6c8ebf;strokeWidth=2;" vertex="1" parent="1">
          <mxGeometry x="240" y="160" width="160" height="160" as="geometry" />
        </mxCell>
        <mxCell id="Yms6cLOZq9a6LL3DzPWF-7" value="&lt;font face=&quot;Times New Roman&quot;&gt;Section III&lt;/font&gt;" style="text;html=1;align=center;verticalAlign=middle;whiteSpace=wrap;rounded=0;" vertex="1" parent="1">
          <mxGeometry x="243" y="160" width="60" height="30" as="geometry" />
        </mxCell>
        <mxCell id="Yms6cLOZq9a6LL3DzPWF-12" style="edgeStyle=orthogonalEdgeStyle;rounded=0;orthogonalLoop=1;jettySize=auto;html=1;exitX=0.5;exitY=1;exitDx=0;exitDy=0;entryX=0.5;entryY=0;entryDx=0;entryDy=0;fillColor=#f5f5f5;strokeColor=#666666;startArrow=classic;startFill=1;" edge="1" parent="1" source="Yms6cLOZq9a6LL3DzPWF-8" target="Yms6cLOZq9a6LL3DzPWF-9">
          <mxGeometry relative="1" as="geometry" />
        </mxCell>
        <mxCell id="Yms6cLOZq9a6LL3DzPWF-8" value="&lt;font face=&quot;Times New Roman&quot;&gt;Denotational&lt;/font&gt;&lt;div&gt;&lt;font face=&quot;Times New Roman&quot;&gt;Semantics&lt;/font&gt;&lt;/div&gt;" style="rounded=1;whiteSpace=wrap;html=1;fillColor=#f5f5f5;fontColor=#333333;strokeColor=#666666;strokeWidth=2;" vertex="1" parent="1">
          <mxGeometry x="250" y="190" width="140" height="30" as="geometry" />
        </mxCell>
        <mxCell id="Yms6cLOZq9a6LL3DzPWF-9" value="&lt;font face=&quot;Times New Roman&quot;&gt;Parcel-accelerated&lt;/font&gt;&lt;div&gt;&lt;font face=&quot;Times New Roman&quot;&gt;model Checking&lt;/font&gt;&lt;/div&gt;" style="rounded=1;whiteSpace=wrap;html=1;fillColor=#f5f5f5;fontColor=#333333;strokeColor=#666666;strokeWidth=2;" vertex="1" parent="1">
          <mxGeometry x="250" y="270" width="140" height="30" as="geometry" />
        </mxCell>
        <mxCell id="Yms6cLOZq9a6LL3DzPWF-10" style="edgeStyle=orthogonalEdgeStyle;rounded=0;orthogonalLoop=1;jettySize=auto;html=1;exitX=1;exitY=0.5;exitDx=0;exitDy=0;entryX=0;entryY=0.5;entryDx=0;entryDy=0;fillColor=#f5f5f5;strokeColor=#666666;" edge="1" parent="1" source="Yms6cLOZq9a6LL3DzPWF-4" target="Yms6cLOZq9a6LL3DzPWF-8">
          <mxGeometry relative="1" as="geometry" />
        </mxCell>
        <mxCell id="Yms6cLOZq9a6LL3DzPWF-24" style="edgeStyle=orthogonalEdgeStyle;rounded=0;orthogonalLoop=1;jettySize=auto;html=1;exitX=0;exitY=0.5;exitDx=0;exitDy=0;entryX=1;entryY=0.5;entryDx=0;entryDy=0;fillColor=#dae8fc;strokeColor=#6c8ebf;strokeWidth=2;" edge="1" parent="1" source="Yms6cLOZq9a6LL3DzPWF-13" target="Yms6cLOZq9a6LL3DzPWF-18">
          <mxGeometry relative="1" as="geometry" />
        </mxCell>
        <mxCell id="Yms6cLOZq9a6LL3DzPWF-13" value="&lt;div&gt;&lt;font style=&quot;font-size: 14px;&quot; face=&quot;Times New Roman&quot;&gt;&lt;br&gt;&lt;/font&gt;&lt;/div&gt;" style="rounded=1;whiteSpace=wrap;html=1;align=left;fillColor=#dae8fc;strokeColor=#6c8ebf;strokeWidth=2;" vertex="1" parent="1">
          <mxGeometry x="240" y="360" width="160" height="160" as="geometry" />
        </mxCell>
        <mxCell id="Yms6cLOZq9a6LL3DzPWF-14" value="&lt;font face=&quot;Times New Roman&quot;&gt;Section IV&lt;/font&gt;" style="text;html=1;align=center;verticalAlign=middle;whiteSpace=wrap;rounded=0;" vertex="1" parent="1">
          <mxGeometry x="243" y="360" width="60" height="30" as="geometry" />
        </mxCell>
        <mxCell id="Yms6cLOZq9a6LL3DzPWF-15" style="edgeStyle=orthogonalEdgeStyle;rounded=0;orthogonalLoop=1;jettySize=auto;html=1;exitX=0.5;exitY=1;exitDx=0;exitDy=0;entryX=0.5;entryY=0;entryDx=0;entryDy=0;fillColor=#f5f5f5;strokeColor=#666666;startArrow=classic;startFill=1;" edge="1" parent="1" source="Yms6cLOZq9a6LL3DzPWF-16" target="Yms6cLOZq9a6LL3DzPWF-17">
          <mxGeometry relative="1" as="geometry" />
        </mxCell>
        <mxCell id="Yms6cLOZq9a6LL3DzPWF-16" value="&lt;font face=&quot;Times New Roman&quot;&gt;&lt;svg style=&quot;vertical-align: 0px;&quot; xmlns:xlink=&quot;http://www.w3.org/1999/xlink&quot; viewBox=&quot;0 0 12 12&quot; role=&quot;img&quot; height=&quot;0.027ex&quot; width=&quot;0.027ex&quot; xmlns=&quot;http://www.w3.org/2000/svg&quot;&gt;&lt;defs&gt;&lt;/defs&gt;&lt;g transform=&quot;scale(1,-1)&quot; stroke-width=&quot;0&quot; fill=&quot;currentColor&quot; stroke=&quot;currentColor&quot;&gt;&lt;g data-mml-node=&quot;math&quot;&gt;&lt;/g&gt;&lt;/g&gt;&lt;/svg&gt;&lt;/font&gt;" style="rounded=1;whiteSpace=wrap;html=1;fillColor=#f5f5f5;fontColor=#333333;strokeColor=#666666;strokeWidth=2;" vertex="1" parent="1">
          <mxGeometry x="250" y="390" width="140" height="30" as="geometry" />
        </mxCell>
        <mxCell id="Yms6cLOZq9a6LL3DzPWF-17" value="&lt;font face=&quot;Times New Roman&quot;&gt;Parcel-accelerated&lt;/font&gt;&lt;div&gt;&lt;font face=&quot;Times New Roman&quot;&gt;model Checking&lt;/font&gt;&lt;/div&gt;" style="rounded=1;whiteSpace=wrap;html=1;fillColor=#f5f5f5;fontColor=#333333;strokeColor=#666666;strokeWidth=2;" vertex="1" parent="1">
          <mxGeometry x="250" y="470" width="140" height="30" as="geometry" />
        </mxCell>
        <mxCell id="Yms6cLOZq9a6LL3DzPWF-18" value="&lt;div&gt;&lt;font style=&quot;font-size: 14px;&quot; face=&quot;Times New Roman&quot;&gt;&lt;br&gt;&lt;/font&gt;&lt;/div&gt;" style="rounded=1;whiteSpace=wrap;html=1;align=left;fillColor=#dae8fc;strokeColor=#6c8ebf;strokeWidth=2;" vertex="1" parent="1">
          <mxGeometry x="40" y="360" width="160" height="160" as="geometry" />
        </mxCell>
        <mxCell id="Yms6cLOZq9a6LL3DzPWF-19" value="&lt;font face=&quot;Times New Roman&quot;&gt;Section V&lt;/font&gt;" style="text;html=1;align=center;verticalAlign=middle;whiteSpace=wrap;rounded=0;" vertex="1" parent="1">
          <mxGeometry x="43" y="360" width="60" height="30" as="geometry" />
        </mxCell>
        <mxCell id="Yms6cLOZq9a6LL3DzPWF-20" style="edgeStyle=orthogonalEdgeStyle;rounded=0;orthogonalLoop=1;jettySize=auto;html=1;exitX=0.5;exitY=1;exitDx=0;exitDy=0;entryX=0.5;entryY=0;entryDx=0;entryDy=0;fillColor=#f5f5f5;strokeColor=#666666;startArrow=classic;startFill=1;" edge="1" parent="1" source="Yms6cLOZq9a6LL3DzPWF-21" target="Yms6cLOZq9a6LL3DzPWF-22">
          <mxGeometry relative="1" as="geometry" />
        </mxCell>
        <mxCell id="Yms6cLOZq9a6LL3DzPWF-21" value="&lt;font face=&quot;Times New Roman&quot;&gt;Denotational&lt;/font&gt;&lt;div&gt;&lt;font face=&quot;Times New Roman&quot;&gt;Semantics&lt;/font&gt;&lt;/div&gt;" style="rounded=1;whiteSpace=wrap;html=1;fillColor=#f5f5f5;fontColor=#333333;strokeColor=#666666;strokeWidth=2;" vertex="1" parent="1">
          <mxGeometry x="50" y="390" width="140" height="30" as="geometry" />
        </mxCell>
        <mxCell id="Yms6cLOZq9a6LL3DzPWF-22" value="&lt;font face=&quot;Times New Roman&quot;&gt;Parcel-accelerated&lt;/font&gt;&lt;div&gt;&lt;font face=&quot;Times New Roman&quot;&gt;model Checking&lt;/font&gt;&lt;/div&gt;" style="rounded=1;whiteSpace=wrap;html=1;fillColor=#f5f5f5;fontColor=#333333;strokeColor=#666666;strokeWidth=2;" vertex="1" parent="1">
          <mxGeometry x="50" y="470" width="140" height="30" as="geometry" />
        </mxCell>
      </root>
    </mxGraphModel>
  </diagram>
</mxfile>
